<?xml version="1.0" encoding="iso-8859-1"?>
<!-- Generator: Adobe Illustrator 19.0.0, SVG Export Plug-In . SVG Version: 6.00 Build 0)  -->
<svg version="1.1" id="Layer_1" xmlns="http://www.w3.org/2000/svg" xmlns:xlink="http://www.w3.org/1999/xlink" x="0px" y="0px"
	 viewBox="0 0 290.625 290.625" style="enable-background:new 0 0 290.625 290.625;" xml:space="preserve">
<g>
	<g>
		<path d="M281.25,278.906L281.25,278.906V2.344h-9.375v70.313h-5.55c0.525-1.472,0.862-3.038,0.862-4.688
			c0-7.753-6.309-14.063-14.063-14.063H79.688c-7.753,0-14.063,6.309-14.063,14.063c0,1.65,0.338,3.216,0.863,4.688H60.07
			c0.53-1.472,0.867-3.038,0.867-4.688c0-7.753-6.309-14.063-14.063-14.063H37.5c-7.753,0-14.063,6.309-14.063,14.063
			c0,1.65,0.337,3.216,0.862,4.688h-5.55V2.344H9.375v276.563H0v9.375h290.625v-9.375H281.25z M79.688,63.281h173.438
			c2.587,0,4.688,2.105,4.688,4.688s-2.1,4.688-4.688,4.688H79.688C77.1,72.656,75,70.552,75,67.969S77.1,63.281,79.688,63.281z
			 M192.187,91.406v-9.375h51.563v9.375H192.187z M243.75,100.781v9.375h-51.563v-9.375H243.75z M243.75,232.031v9.375h-51.563
			v-9.375H243.75z M37.501,63.281h9.375c2.588,0,4.688,2.105,4.688,4.688s-2.1,4.688-4.688,4.688H37.5
			c-2.588-0.001-4.687-2.105-4.687-4.688S34.913,63.281,37.501,63.281z M18.75,82.031H37.5h9.375h32.813h103.125v9.375H18.75V82.031
			z M159.375,203.906v-7.584l-3.581-1.791h27.019v9.375H159.375z M182.813,213.281v9.375h-23.438v-9.375H182.813z M18.749,100.781
			h164.063v84.375h-28.124v-17.33c0-8.33-4.139-16.064-11.067-20.681c-4.092-2.733-8.864-4.177-13.791-4.177h-7.936
			c10.332-0.011,18.731-8.416,18.731-18.749c0-10.341-8.409-18.75-18.75-18.75s-18.75,8.409-18.75,18.75
			c0,10.334,8.399,18.738,18.731,18.749h-7.936c-4.927,0-9.694,1.444-13.786,4.177c-6.933,4.617-11.072,12.347-11.072,20.681v17.33
			h-9.375c-7.753,0-14.063,6.309-14.063,14.063c0,1.65,0.338,3.216,0.863,4.688H60.07c0.53-1.472,0.867-3.037,0.867-4.688
			c0-7.753-6.309-14.063-14.063-14.063H37.5c-7.753,0-14.063,6.309-14.063,14.063c0,1.65,0.337,3.216,0.862,4.688h-5.55V100.781z
			 M121.875,199.073l-23.438,5.859v48.192c0,1.289-1.055,2.344-2.344,2.344s-2.344-1.055-2.344-2.344v-51.009l18.75-9.375v-26.334
			h-9.375v20.541l-4.688,2.344v-21.464c0-5.189,2.578-10.008,6.895-12.881c2.55-1.706,5.517-2.602,8.587-2.602h15.914
			c3.066,0,6.037,0.895,8.587,2.602c4.313,2.873,6.891,7.688,6.891,12.881v21.464l-4.688-2.344v-20.541h-9.375v26.334l18.75,9.375
			v51.009c0,1.289-1.055,2.344-2.344,2.344s-2.344-1.055-2.344-2.344v-48.192L121.875,199.073z M135.939,212.253v10.402h-0.001
			h-28.125v-10.402l14.063-3.516L135.939,212.253z M112.5,124.219c0-5.17,4.205-9.375,9.375-9.375s9.375,4.205,9.375,9.375
			s-4.205,9.375-9.375,9.375S112.5,129.388,112.5,124.219z M37.5,213.281h9.375h32.813h4.688v9.375h-0.001H18.75v-9.375H37.5z
			 M32.813,199.219c0-2.587,2.1-4.688,4.688-4.688h9.375c2.588,0,4.688,2.1,4.688,4.688s-2.1,4.688-4.688,4.688H37.5
			C34.912,203.906,32.813,201.805,32.813,199.219z M84.375,196.322v7.584h-4.688c-2.588,0-4.688-2.1-4.688-4.688
			c0-2.588,2.1-4.688,4.688-4.688h8.269L84.375,196.322z M182.814,278.906H18.75v-46.875h65.625v21.094
			c0,6.464,5.255,11.719,11.719,11.719s11.719-5.255,11.719-11.719v-21.094h28.125v21.094c0,6.464,5.255,11.719,11.719,11.719
			c6.464,0,11.719-5.255,11.719-11.719v-21.094h23.438V278.906z M192.187,250.781h51.563v9.375h-51.563V250.781z M243.751,278.906
			h-51.563v-9.375h51.563V278.906z M243.751,222.656h-51.563v-9.375h51.563V222.656z M243.751,203.906h-51.563v-9.375h51.563
			V203.906z M243.751,185.156h-51.563v-9.375h51.563V185.156z M243.751,166.406h-51.563v-9.375h51.563V166.406z M243.751,147.656
			h-51.563v-9.375h51.563V147.656z M243.751,128.906h-51.563v-9.375h51.563V128.906z M271.875,278.906h-18.75v-46.875h18.75V278.906
			z M271.875,222.656h-18.75v-9.375h18.75V222.656z M271.875,203.906h-18.75V100.781h18.75V203.906z M271.875,91.406h-18.75v-9.375
			h18.75V91.406z"/>
	</g>
</g>
<g>
</g>
<g>
</g>
<g>
</g>
<g>
</g>
<g>
</g>
<g>
</g>
<g>
</g>
<g>
</g>
<g>
</g>
<g>
</g>
<g>
</g>
<g>
</g>
<g>
</g>
<g>
</g>
<g>
</g>
</svg>
